<?xml version="1.0" standalone="no"?>
<!DOCTYPE svg PUBLIC "-//W3C//DTD SVG 20010904//EN"
 "http://www.w3.org/TR/2001/REC-SVG-20010904/DTD/svg10.dtd">
<svg version="1.0" xmlns="http://www.w3.org/2000/svg"
 width="300.000000pt" height="300.000000pt" viewBox="0 0 300.000000 300.000000"
 preserveAspectRatio="xMidYMid meet">
<metadata>
Created by potrace 1.10, written by Peter Selinger 2001-2011
</metadata>
<g transform="translate(0.000000,300.000000) scale(0.100000,-0.100000)"
fill="#000000" stroke="none">
<path d="M838 2401 l-33 -29 -3 -661 c-2 -588 -1 -665 13 -692 28 -54 58 -59
325 -59 l241 0 24 24 c16 16 23 31 19 43 -15 41 -29 43 -276 43 l-238 0 2 628
3 627 615 3 c338 1 625 0 638 -3 l22 -5 0 -625 0 -625 -238 0 c-201 0 -241 -2
-260 -16 -16 -11 -22 -24 -20 -42 6 -49 30 -52 305 -50 l252 3 30 29 31 30 0
669 c0 439 -4 675 -10 688 -27 49 -21 49 -739 49 l-671 0 -32 -29z m1388 -26
c28 -18 26 22 26 -849 -1 -461 -1 -480 -20 -499 -18 -18 -35 -19 -253 -19
-284 0 -268 0 -249 12 8 5 110 9 228 10 225 0 241 3 262 49 16 35 15 1200 -1
1235 -25 55 -22 54 -686 53 l-613 -2 -26 -26 -25 -26 -5 -244 c-2 -134 -3
-251 -3 -259 1 -8 2 -168 4 -355 3 -412 0 -369 28 -400 l22 -26 223 0 c122 0
222 -4 222 -8 0 -15 -33 -17 -257 -16 -198 1 -225 3 -240 18 -17 16 -18 64
-21 666 -3 778 -20 699 151 703 62 2 359 2 661 1 475 -2 552 -5 572 -18z"/>
<path d="M1473 2260 c-54 -32 -83 -98 -69 -154 8 -32 53 -86 83 -97 21 -8 23
-14 23 -86 l0 -78 -109 109 c-60 60 -112 120 -116 133 -11 45 -92 51 -109 8
-15 -40 9 -85 44 -85 8 0 82 -67 165 -150 83 -82 156 -150 162 -150 5 0 77 68
160 150 83 83 158 150 166 150 49 0 64 78 21 107 -24 15 -29 15 -53 2 -14 -8
-27 -24 -29 -35 -2 -11 -54 -72 -117 -134 l-115 -115 0 80 0 80 35 19 c99 54
100 203 1 250 -46 22 -104 20 -143 -4z m122 -75 c14 -13 25 -33 25 -45 0 -29
-44 -70 -75 -70 -33 0 -65 33 -65 68 0 32 8 45 35 60 31 18 54 14 80 -13z m4
-376 c1 -3 -10 -16 -23 -28 -24 -23 -25 -23 -50 -5 -31 23 -32 32 -5 60 l22
23 28 -22 c15 -12 28 -25 28 -28z"/>
<path d="M1032 2217 c-29 -31 -28 -62 4 -93 29 -30 67 -27 97 8 22 27 22 49
-4 82 -26 33 -68 34 -97 3z m66 -44 c-2 -10 -10 -18 -18 -18 -8 0 -16 8 -18
18 -2 12 3 17 18 17 15 0 20 -5 18 -17z"/>
<path d="M1970 2220 c-53 -53 7 -143 72 -109 31 16 38 28 38 66 0 56 -69 84
-110 43z m63 -36 c9 -10 -4 -34 -18 -34 -17 0 -28 17 -20 30 7 11 28 13 38 4z"/>
<path d="M1026 1998 c-32 -45 -6 -98 47 -98 25 0 46 -13 94 -55 61 -54 62 -55
125 -55 74 0 91 8 86 41 -3 22 -9 24 -59 27 -55 3 -56 4 -134 82 -67 67 -85
80 -112 80 -22 0 -37 -7 -47 -22z m82 -45 c2 -8 -6 -13 -22 -13 -17 0 -26 5
-26 16 0 19 41 16 48 -3z"/>
<path d="M1909 1935 c-88 -90 -98 -107 -79 -130 21 -25 39 -17 102 42 47 46
65 57 87 55 36 -4 61 21 61 58 0 36 -24 60 -59 60 -22 0 -47 -18 -112 -85z
m124 39 c12 -13 -6 -34 -31 -34 -24 0 -25 0 -7 20 19 21 28 24 38 14z"/>
<path d="M994 1776 c-30 -30 -34 -40 -34 -84 0 -43 5 -55 31 -81 26 -26 38
-31 78 -31 54 0 96 25 111 66 9 23 14 24 100 24 97 0 130 10 130 38 0 35 -21
42 -126 42 -100 0 -103 1 -132 30 -25 25 -39 30 -77 30 -40 0 -52 -5 -81 -34z
m114 -48 c7 -7 12 -21 12 -33 0 -12 -5 -26 -12 -33 -28 -28 -78 -7 -78 33 0
12 5 26 12 33 7 7 21 12 33 12 12 0 26 -5 33 -12z"/>
<path d="M1960 1793 c-14 -9 -29 -23 -35 -30 -7 -8 -45 -13 -114 -15 -86 -3
-106 -6 -115 -20 -8 -13 -8 -23 0 -35 9 -15 29 -18 113 -21 84 -2 101 -5 101
-18 0 -9 14 -29 31 -45 26 -24 40 -29 81 -29 41 0 54 5 78 29 37 36 46 72 31
122 -21 69 -113 102 -171 62z m92 -70 c22 -19 23 -46 4 -63 -21 -16 -56 -9
-72 15 -12 18 -11 24 2 43 18 26 41 28 66 5z"/>
<path d="M1525 1620 l-310 -5 -3 -22 c-2 -13 1 -23 7 -23 15 0 14 -27 -1 -36
-7 -4 -27 -7 -44 -6 -24 2 -37 -4 -52 -23 -12 -15 -30 -25 -46 -25 -30 0 -66
-32 -66 -58 0 -10 7 -28 16 -40 22 -32 83 -28 100 7 7 13 43 55 80 92 l68 69
118 0 118 0 0 -79 0 -79 -34 -20 c-98 -58 -99 -186 -1 -243 33 -20 35 -24 35
-74 0 -58 16 -81 50 -70 17 5 20 15 20 65 0 58 1 59 35 76 100 47 100 208 0
250 l-35 14 0 80 0 80 118 0 117 0 73 -71 c39 -39 72 -75 72 -79 0 -15 38 -40
63 -40 34 0 57 24 57 60 0 36 -23 60 -59 60 -22 0 -44 17 -100 75 -39 41 -75
74 -79 73 -4 -2 -146 -5 -317 -8z m-425 -195 c-13 -16 -40 -20 -40 -7 0 14 12
22 33 22 16 0 17 -3 7 -15z m924 9 c8 -3 12 -12 9 -20 -4 -10 -10 -11 -24 -3
-34 18 -22 37 15 23z m-429 -139 c30 -30 31 -54 4 -89 -40 -51 -122 -22 -122
44 0 64 72 92 118 45z"/>
<path d="M1521 1267 c-18 -23 -2 -49 28 -45 20 2 26 8 26 28 0 29 -34 40 -54
17z"/>
<path d="M1305 1449 c-33 -33 -73 -68 -90 -76 -36 -19 -45 -31 -45 -60 0 -32
28 -55 64 -51 24 2 35 11 48 37 10 19 44 62 78 96 33 33 60 66 60 72 0 15 -28
43 -44 43 -6 0 -38 -27 -71 -61z"/>
<path d="M1692 1498 c-24 -24 -11 -50 52 -108 41 -39 66 -70 69 -90 7 -34 44
-49 81 -32 47 21 37 84 -16 107 -18 7 -60 41 -93 74 -62 63 -73 69 -93 49z"/>
<path d="M1030 1250 c-41 -41 -10 -110 49 -110 60 0 90 82 44 118 -25 18 -70
15 -93 -8z m67 -36 c8 -21 -13 -42 -28 -27 -13 13 -5 43 11 43 6 0 13 -7 17
-16z"/>
<path d="M1967 1252 c-25 -27 -22 -78 5 -96 48 -34 108 -7 108 48 0 19 -8 40
-18 49 -25 22 -75 21 -95 -1z m62 -58 c-6 -7 -17 -10 -25 -7 -17 6 -18 15 -2
31 17 17 43 -5 27 -24z"/>
<path d="M1375 868 c-3 -8 -4 -99 -3 -203 l3 -190 30 0 c28 0 30 2 30 40 1 69
13 71 56 10 40 -55 66 -68 88 -42 8 11 1 27 -33 73 l-45 59 26 28 c35 35 49
34 57 -5 3 -17 15 -62 27 -100 19 -66 21 -68 53 -68 32 0 34 2 51 63 l18 62
19 -62 c18 -61 20 -63 52 -63 l33 0 32 118 c18 64 35 125 37 135 4 14 -1 17
-30 17 l-34 0 -16 -69 c-9 -39 -16 -77 -16 -85 0 -40 -17 -8 -35 67 -17 66
-25 83 -41 85 -17 2 -23 -9 -44 -90 l-24 -93 -21 90 -20 90 -46 3 c-43 3 -48
0 -93 -48 -26 -27 -48 -50 -49 -50 -1 0 -2 53 -2 117 l0 118 -28 3 c-16 2 -29
-2 -32 -10z"/>
<path d="M687 805 c-78 -27 -120 -89 -120 -175 0 -153 157 -242 285 -161 130
82 110 275 -34 336 -45 18 -81 19 -131 0z m24 -101 c9 -12 7 -14 -15 -14 -15
0 -42 -7 -61 -14 -19 -8 -35 -13 -35 -10 0 21 35 72 58 86 26 16 27 16 34 -8
4 -14 12 -32 19 -40z m66 50 c9 -23 -25 -48 -44 -33 -7 6 -13 20 -13 30 0 24
48 26 57 3z m71 -4 c26 -25 30 -40 5 -18 -10 9 -23 14 -29 11 -6 -2 -17 3 -24
12 -20 24 21 20 48 -5z m0 -107 c-2 -44 -7 -68 -16 -71 -7 -2 -16 5 -19 17 -4
17 -13 21 -48 21 l-42 0 1 -37 c1 -32 -2 -38 -21 -41 -21 -3 -23 1 -23 37 0
37 -2 41 -26 41 -21 0 -25 4 -22 23 3 21 7 22 91 21 l87 -1 0 29 c0 22 5 28
20 28 19 0 21 -5 18 -67z m42 -84 c-7 -15 -20 -35 -30 -44 -16 -14 -18 -14
-34 10 -16 24 -16 25 3 25 30 0 62 40 61 75 -3 49 3 54 7 6 3 -24 -1 -56 -7
-72z m-240 -8 c1 -25 25 -51 49 -51 11 0 21 -4 21 -10 0 -25 -56 1 -87 39 -12
15 -25 41 -29 57 l-7 29 27 -24 c14 -14 26 -32 26 -40z m148 -39 c4 -28 -24
-40 -45 -19 -14 13 -14 19 -3 32 18 22 44 15 48 -13z"/>
<path d="M1945 810 c-11 -17 5 -50 24 -50 24 0 43 23 35 44 -7 18 -49 22 -59
6z"/>
<path d="M1026 620 c43 -160 38 -152 76 -148 28 3 33 8 46 48 7 25 16 52 19
60 3 8 13 -12 22 -45 15 -56 18 -60 49 -63 38 -4 36 -7 80 156 l30 112 -33 0
c-38 0 -38 -1 -56 -98 -7 -39 -16 -72 -20 -72 -4 0 -9 14 -13 30 -17 88 -38
140 -55 140 -14 0 -23 -20 -43 -92 l-25 -93 -17 80 c-23 109 -21 105 -59 105
l-34 0 33 -120z"/>
<path d="M1950 738 c0 -2 -1 -61 -1 -133 l-1 -130 28 0 29 0 3 133 3 132 -31
0 c-16 0 -30 -1 -30 -2z"/>
<path d="M2086 719 c-20 -16 -26 -29 -26 -60 0 -33 5 -42 31 -58 17 -11 47
-22 65 -26 25 -4 34 -11 34 -25 0 -25 -45 -27 -79 -4 -21 15 -24 15 -43 -4
-25 -24 -17 -39 28 -58 56 -23 101 -18 135 15 54 55 31 110 -56 136 -58 16
-65 24 -39 46 13 11 21 11 44 -3 27 -15 29 -15 51 8 12 13 21 26 18 28 -37 32
-125 35 -163 5z"/>
<path d="M2365 730 c-40 -16 -68 -58 -73 -108 -10 -113 87 -182 193 -138 40
17 43 26 15 51 -16 14 -23 16 -32 7 -24 -24 -108 -2 -108 29 0 5 42 9 95 9 95
0 95 0 95 25 0 94 -99 161 -185 125z m93 -66 c36 -25 26 -34 -38 -34 -33 0
-60 3 -60 7 0 3 7 15 17 25 20 22 51 23 81 2z"/>
</g>
</svg>
